<svg id="Layer_1" data-name="Layer 1" xmlns="http://www.w3.org/2000/svg" xmlns:xlink="http://www.w3.org/1999/xlink" viewBox="0 0 2399 167"><defs><style>.cls-1{font-size:108px;font-family:CourierNewPSMT, Courier New;}.cls-2{fill:url(#linear-gradient);}.cls-3{fill:#6dcff6;}.cls-4{fill:#ed1c24;}.cls-5{fill:#00a651;}.cls-6{fill:#ffcb05;}.cls-7{fill:url(#linear-gradient-2);}</style><linearGradient id="linear-gradient" x1="87.77" y1="142.63" x2="87.77" y2="18.33" gradientUnits="userSpaceOnUse"><stop offset="0" stop-color="#fff"/><stop offset="0" stop-color="#f6f6f8"/><stop offset="0.02" stop-color="#c8c8d6"/><stop offset="0.05" stop-color="#9e9db5"/><stop offset="0.07" stop-color="#787799"/><stop offset="0.1" stop-color="#585780"/><stop offset="0.13" stop-color="#3d3b6c"/><stop offset="0.17" stop-color="#27255b"/><stop offset="0.21" stop-color="#16144e"/><stop offset="0.25" stop-color="#0b0946"/><stop offset="0.32" stop-color="#040240"/><stop offset="0.52" stop-color="#02003f"/><stop offset="0.62" stop-color="#040241"/><stop offset="0.69" stop-color="#0c0b47"/><stop offset="0.74" stop-color="#1a1851"/><stop offset="0.78" stop-color="#2e2c60"/><stop offset="0.82" stop-color="#474674"/><stop offset="0.85" stop-color="#67658b"/><stop offset="0.89" stop-color="#8c8ba8"/><stop offset="0.92" stop-color="#b7b6c8"/><stop offset="0.95" stop-color="#e6e6ec"/><stop offset="0.96" stop-color="#fff"/></linearGradient><linearGradient id="linear-gradient-2" x1="88" y1="144" x2="88" y2="17" gradientUnits="userSpaceOnUse"><stop offset="0" stop-color="#fff"/><stop offset="0.02" stop-color="#fff" stop-opacity="0.91"/><stop offset="0.05" stop-color="#fff" stop-opacity="0.72"/><stop offset="0.09" stop-color="#fff" stop-opacity="0.55"/><stop offset="0.13" stop-color="#fff" stop-opacity="0.4"/><stop offset="0.17" stop-color="#fff" stop-opacity="0.28"/><stop offset="0.21" stop-color="#fff" stop-opacity="0.17"/><stop offset="0.27" stop-color="#fff" stop-opacity="0.1"/><stop offset="0.32" stop-color="#fff" stop-opacity="0.04"/><stop offset="0.39" stop-color="#fff" stop-opacity="0.01"/><stop offset="0.52" stop-color="#fff" stop-opacity="0"/><stop offset="0.58" stop-color="#fff" stop-opacity="0.01"/><stop offset="0.64" stop-color="#fff" stop-opacity="0.06"/><stop offset="0.69" stop-color="#fff" stop-opacity="0.13"/><stop offset="0.75" stop-color="#fff" stop-opacity="0.23"/><stop offset="0.8" stop-color="#fff" stop-opacity="0.36"/><stop offset="0.85" stop-color="#fff" stop-opacity="0.52"/><stop offset="0.9" stop-color="#fff" stop-opacity="0.7"/><stop offset="0.95" stop-color="#fff" stop-opacity="0.92"/><stop offset="0.96" stop-color="#fff"/></linearGradient></defs><text class="cls-1" transform="translate(162.48 103.6)">seq-toolkit</text><path class="cls-2" d="M150.27,142.38c-14.74-1.95-27.25-3.1-36.76-3.82-25.9-1.93-39.08-2.84-50.61,0a118.8,118.8,0,0,1-17.3,3.34,112,112,0,0,1-20.33.48V19.77A194.66,194.66,0,0,0,59.87,25c13.44.79,28.17,1.66,46.28-2.39,7.85-1.75,15.28-4.2,27.25-4.29a91.15,91.15,0,0,1,16.87,1.43Z"/><rect class="cls-3" x="60.71" y="45.75" width="23.85" height="6.65" rx="2.66"/><rect class="cls-4" x="60.71" y="54.73" width="23.85" height="6.65" rx="2.66"/><rect class="cls-5" x="60.71" y="27.81" width="23.85" height="6.65" rx="2.66"/><rect class="cls-5" x="60.71" y="36.78" width="23.85" height="6.65" rx="2.66"/><rect class="cls-3" x="60.71" y="63.7" width="23.85" height="6.65" rx="2.66"/><rect class="cls-5" x="60.71" y="72.67" width="23.85" height="6.65" rx="2.66"/><rect class="cls-3" x="60.71" y="90.62" width="23.85" height="6.65" rx="2.66"/><rect class="cls-6" x="60.71" y="108.56" width="23.85" height="6.65" rx="2.66"/><rect class="cls-3" x="60.71" y="126.51" width="23.85" height="6.65" rx="2.66"/><rect class="cls-4" x="60.71" y="81.65" width="23.85" height="6.65" rx="2.66"/><rect class="cls-4" x="60.71" y="99.59" width="23.85" height="6.65" rx="2.66"/><rect class="cls-6" x="60.71" y="117.54" width="23.85" height="6.65" rx="2.66"/><rect class="cls-4" x="91.11" y="37.68" width="23.85" height="6.65" rx="2.66"/><rect class="cls-5" x="91.14" y="77.16" width="23.85" height="6.65" rx="2.66"/><rect class="cls-5" x="91.14" y="96.9" width="23.85" height="6.65" rx="2.66"/><rect class="cls-5" x="91.11" y="27.81" width="23.85" height="6.65" rx="2.66"/><rect class="cls-4" x="91.14" y="67.29" width="23.85" height="6.65" rx="2.66"/><rect class="cls-3" x="91.14" y="87.03" width="23.85" height="6.65" rx="2.66"/><rect class="cls-5" x="91.14" y="106.77" width="23.85" height="6.65" rx="2.66"/><rect class="cls-6" x="91.14" y="57.42" width="23.85" height="6.65" rx="2.66"/><rect class="cls-6" x="91.14" y="47.55" width="23.85" height="6.65" rx="2.66"/><rect class="cls-6" x="91.14" y="116.64" width="23.85" height="6.65" rx="2.66"/><rect class="cls-4" x="91.14" y="126.51" width="23.85" height="6.65" rx="2.66"/><rect class="cls-6" x="121.54" y="47.55" width="23.85" height="6.65" rx="2.66"/><rect class="cls-3" x="121.54" y="37.68" width="23.85" height="6.65" rx="2.66"/><rect class="cls-4" x="121.54" y="27.81" width="23.85" height="6.65" rx="2.66"/><rect class="cls-3" x="121.54" y="77.16" width="23.85" height="6.65" rx="2.66"/><rect class="cls-5" x="121.54" y="67.29" width="23.85" height="6.65" rx="2.66"/><rect class="cls-4" x="121.54" y="57.42" width="23.85" height="6.65" rx="2.66"/><rect class="cls-3" x="121.54" y="87.03" width="23.85" height="6.65" rx="2.66"/><rect class="cls-5" x="121.54" y="126.51" width="23.85" height="6.65" rx="2.66"/><rect class="cls-4" x="121.54" y="116.64" width="23.85" height="6.65" rx="2.66"/><rect class="cls-4" x="121.54" y="96.9" width="23.85" height="6.65" rx="2.66"/><rect class="cls-5" x="121.54" y="106.77" width="23.85" height="6.65" rx="2.66"/><rect class="cls-3" x="30.37" y="36.78" width="23.85" height="6.65" rx="2.66"/><rect class="cls-3" x="30.42" y="45.75" width="23.85" height="6.65" rx="2.66"/><rect class="cls-3" x="30.44" y="63.7" width="23.85" height="6.65" rx="2.66"/><rect class="cls-6" x="30.39" y="27.81" width="23.85" height="6.65" rx="2.66"/><rect class="cls-5" x="30.39" y="54.73" width="23.85" height="6.65" rx="2.66"/><rect class="cls-5" x="30.44" y="90.62" width="23.85" height="6.65" rx="2.66"/><rect class="cls-4" x="30.42" y="108.56" width="23.85" height="6.65" rx="2.66"/><rect class="cls-6" x="30.19" y="126.51" width="23.85" height="6.65" rx="2.66"/><rect class="cls-5" x="30.14" y="72.67" width="23.85" height="6.65" rx="2.66"/><rect class="cls-5" x="30.19" y="81.65" width="23.85" height="6.65" rx="2.66"/><rect class="cls-5" x="30.43" y="99.59" width="23.85" height="6.65" rx="2.66"/><rect class="cls-3" x="30.4" y="117.54" width="23.85" height="6.65" rx="2.66"/><path class="cls-7" d="M152,143.74c-15.09-2-27.91-3.17-37.65-3.9-26.51-2-40-2.9-51.82,0a123.69,123.69,0,0,1-17.71,3.42,116.44,116.44,0,0,1-20.82.48V18.47a199.17,199.17,0,0,0,35.43,5.36c13.76.81,28.84,1.7,47.39-2.44,8-1.79,15.65-4.29,27.91-4.39A93,93,0,0,1,152,18.47Z"/></svg>